<svg width="636" height="636" viewBox="0 0 636 636" fill="none" xmlns="http://www.w3.org/2000/svg">
<g filter="url(#filter0_d_15_1021)">
<path d="M305.821 300.955C306.984 301.31 308.239 301.214 309.334 300.685C310.429 300.157 311.285 299.234 311.73 298.103C312.176 296.971 312.178 295.713 311.737 294.58C311.296 293.446 310.444 292.521 309.351 291.988C308.367 291.601 307.304 291.456 306.252 291.567C305.201 291.678 304.191 292.04 303.309 292.624C302.64 293.239 302.159 294.029 301.919 294.905C301.679 295.782 301.691 296.707 301.953 297.577C302.215 298.447 302.717 299.225 303.401 299.822C304.086 300.42 304.924 300.813 305.821 300.955ZM304.009 296.058C304.009 293.387 309.319 293.069 309.828 296.058C310.814 300.224 303.85 299.969 304.009 296.058ZM302.101 97.4353C297.203 103.191 298.38 110.6 306.076 114.226C307.817 113.777 309.594 113.479 311.386 113.335C313.429 113.469 315.46 113.756 317.46 114.194C319.582 112.919 321.231 110.989 322.161 108.694C323.09 106.4 323.248 103.866 322.612 101.474C322.019 99.3936 320.864 97.5174 319.272 96.0527C317.681 94.588 315.715 93.5916 313.593 93.1738C311.471 92.7559 309.274 92.9328 307.246 93.6848C305.218 94.4368 303.437 95.7348 302.101 97.4353ZM300.32 152.64C300.283 152.453 300.181 152.284 300.033 152.162C299.886 152.041 299.7 151.975 299.509 151.975C299.318 151.975 299.132 152.041 298.984 152.162C298.837 152.284 298.735 152.453 298.698 152.64C298.462 154.412 298.324 156.195 298.285 157.982C298.368 158.237 298.53 158.459 298.747 158.616C298.964 158.773 299.225 158.857 299.493 158.857C299.761 158.857 300.022 158.773 300.239 158.616C300.456 158.459 300.618 158.237 300.701 157.982C300.86 157.442 300.32 153.181 300.32 152.64ZM325.41 153.212C325.373 153.025 325.272 152.856 325.124 152.735C324.976 152.613 324.79 152.547 324.599 152.547C324.408 152.547 324.223 152.613 324.075 152.735C323.927 152.856 323.826 153.025 323.788 153.212C323.788 153.658 323.248 157.951 323.407 158.555C323.49 158.809 323.652 159.031 323.869 159.188C324.086 159.345 324.347 159.43 324.615 159.43C324.883 159.43 325.144 159.345 325.361 159.188C325.578 159.031 325.74 158.809 325.823 158.555C325.982 157.951 325.41 153.689 325.41 153.212ZM300.542 142.178C296.726 141.86 294.977 147.775 294.914 148.029C294.859 148.21 294.879 148.406 294.968 148.573C295.057 148.74 295.21 148.865 295.391 148.92C295.572 148.974 295.768 148.955 295.935 148.865C296.102 148.776 296.226 148.624 296.281 148.442C296.472 147.965 298.507 144.499 300.892 144.626C302.101 144.722 302.705 142.337 300.542 142.178ZM326.364 148.888C326.305 147.767 325.905 146.691 325.217 145.805C324.53 144.918 323.587 144.263 322.516 143.927C322.196 143.843 321.855 143.889 321.569 144.056C321.282 144.223 321.074 144.497 320.99 144.817C320.906 145.138 320.952 145.479 321.119 145.765C321.286 146.051 321.56 146.259 321.88 146.344C322.662 146.622 323.362 147.09 323.917 147.706C324.472 148.322 324.865 149.067 325.06 149.874C325.111 150.046 325.228 150.192 325.386 150.279C325.544 150.365 325.73 150.385 325.903 150.335C326.076 150.284 326.222 150.167 326.308 150.009C326.395 149.851 326.415 149.665 326.364 149.492C326.364 149.492 326.428 149.142 326.364 148.888ZM311.641 165.773C311.768 165.732 311.879 165.651 311.957 165.542C312.036 165.434 312.078 165.303 312.078 165.169C312.078 165.035 312.036 164.905 311.957 164.796C311.879 164.688 311.768 164.607 311.641 164.565C310.178 164.279 308.461 164.183 308.461 162.752C308.629 160.967 308.905 159.194 309.287 157.442C309.305 157.284 309.266 157.125 309.177 156.993C309.088 156.861 308.954 156.766 308.801 156.724C308.648 156.681 308.484 156.695 308.34 156.763C308.196 156.83 308.081 156.947 308.015 157.092C307.225 159.142 306.67 161.276 306.362 163.452C306.425 165.36 308.461 166.791 311.641 165.773ZM315.616 169.939C314.916 170.697 314.056 171.29 313.099 171.675C312.143 172.06 311.112 172.227 310.082 172.165C309.377 172.047 308.704 171.782 308.107 171.388C307.51 170.993 307.002 170.478 306.616 169.876C306.528 169.711 306.377 169.589 306.199 169.535C306.02 169.481 305.827 169.501 305.662 169.59C305.498 169.678 305.375 169.828 305.322 170.007C305.268 170.186 305.288 170.379 305.376 170.544C305.885 171.646 306.682 172.591 307.683 173.278C308.684 173.965 309.852 174.369 311.064 174.447C312.275 174.525 313.486 174.275 314.567 173.722C315.648 173.169 316.56 172.335 317.206 171.307C317.619 170.257 316.474 169.176 315.616 169.939ZM315.266 358.895C315.345 358.95 315.44 358.979 315.536 358.979C315.633 358.979 315.727 358.95 315.806 358.895C319.209 356.764 344.808 336.412 346.907 334.6C346.977 334.535 347.026 334.451 347.047 334.358C347.069 334.265 347.062 334.168 347.028 334.079C346.994 333.99 346.934 333.913 346.855 333.858C346.777 333.804 346.684 333.774 346.589 333.773C346.589 333.773 294.119 332.755 284.865 332.437C284.324 332.437 284.229 333.01 284.515 333.264C286.201 334.918 306.521 352.185 315.266 358.895ZM425.803 603.85C428.188 598.985 423.736 590.812 421.732 587.505C421.693 587.424 421.632 587.356 421.556 587.309C421.48 587.261 421.393 587.236 421.303 587.236C421.213 587.236 421.126 587.261 421.05 587.309C420.974 587.356 420.913 587.424 420.874 587.505C419.252 590.685 415.849 599.017 419.093 603.819C421.287 607.38 424.085 607.635 425.803 603.85ZM232.141 569.665C231.823 569.856 208.545 583.244 207.655 584.611C206.764 585.979 206.796 586.996 208.004 587.092C217.544 587.696 221.201 588.491 221.583 588.936C222.187 591.067 222.855 599.716 224.127 601.434C224.263 601.645 224.456 601.813 224.685 601.917C224.914 602.021 225.168 602.057 225.417 602.02C225.666 601.983 225.898 601.875 226.087 601.709C226.276 601.543 226.412 601.326 226.48 601.084C227.816 596.059 232.013 580.414 232.84 577.838C233.667 575.262 235.066 568.616 232.141 569.665ZM231.695 572.655C231.377 574.753 229.851 580.827 225.335 596.346C224.962 593.108 224.281 589.914 223.3 586.806C219.495 585.667 215.565 584.995 211.598 584.802C218.149 580.732 225.017 576.82 231.6 572.655H231.695ZM248.581 582.799C248.843 582.774 249.088 582.66 249.275 582.477C249.463 582.293 249.582 582.05 249.612 581.789C249.641 581.528 249.581 581.265 249.439 581.043C249.298 580.822 249.085 580.656 248.836 580.573C247.659 580.229 246.435 580.079 245.21 580.127V575.517C245.21 575.297 245.123 575.087 244.968 574.932C244.813 574.777 244.603 574.69 244.384 574.69C244.164 574.69 243.954 574.777 243.799 574.932C243.644 575.087 243.557 575.297 243.557 575.517C243.557 577.17 243.271 578.697 243.143 580.255C241.649 580.255 240.154 580.541 238.596 580.764C237.038 580.986 237.706 582.767 238.85 582.672C240.196 582.592 241.544 582.592 242.889 582.672C242.889 584.071 242.603 585.565 242.539 586.996C242.59 587.327 242.757 587.629 243.011 587.847C243.264 588.065 243.588 588.185 243.923 588.185C244.257 588.185 244.581 588.065 244.835 587.847C245.088 587.629 245.256 587.327 245.306 586.996V582.767C246.396 582.848 247.49 582.859 248.581 582.799ZM325.188 565.404C324.915 564.603 324.409 563.903 323.735 563.393C323.06 562.882 322.248 562.586 321.403 562.542C318.478 562.542 315.743 566.136 313.421 569.475H313.199C310.941 567.885 310.241 567.885 308.143 570.111C305.344 573.132 306.521 573.672 310.146 576.471C307.697 579.873 301.528 588.65 300.606 590.24C299.684 591.83 296.981 596.314 299.97 598.794C300.584 599.233 301.326 599.456 302.08 599.427C302.834 599.399 303.557 599.12 304.136 598.635C308.755 593.035 313.004 587.139 316.856 580.986C320.036 582.894 320.29 583.276 322.771 581.241C323.131 581.005 323.432 580.691 323.653 580.322C323.873 579.953 324.006 579.538 324.043 579.11C324.043 577.552 322.166 576.471 320.863 575.421C321.976 573.799 322.961 572.241 323.852 570.619C324.442 569.901 324.868 569.061 325.099 568.16C325.329 567.259 325.36 566.318 325.188 565.404ZM315.139 570.651C316.192 569.227 317.317 567.858 318.51 566.549C320.068 564.864 321.212 564.45 322.262 565.182C324.043 566.358 323.057 567.408 319.4 574.054L315.139 570.651ZM301.624 597.172C299.811 596.759 300.988 593.992 301.846 592.339C302.705 590.685 309.16 581.336 311.641 577.552C312.626 578.251 314.28 579.333 315.075 579.81C312.913 583.498 306.775 592.53 305.535 593.929C304.295 595.328 303.15 597.522 301.624 597.172ZM310.687 570.206L311.195 570.397C311.704 570.588 322.071 579.046 322.071 579.237C321.609 579.923 321.001 580.498 320.29 580.923C319.082 579.968 311.577 574.881 308.779 572.686C309.362 571.82 309.999 570.992 310.687 570.206ZM380.838 586.074C380.838 586.074 395.275 601.561 396.547 601.974C398.677 602.547 410.189 589.254 411.715 587.473C413.21 588.745 413.973 588.968 415.659 587.282C416.701 586.192 417.57 584.948 418.234 583.594C418.345 583.384 418.387 583.145 418.353 582.911C418.318 582.676 418.21 582.459 418.044 582.29C401.857 565.881 398.964 562.828 398.296 562.574C396.197 561.684 395.116 564.259 393.876 565.182C392.158 566.835 391.236 567.344 394.066 570.524C381.155 584.516 380.138 584.421 380.838 586.074ZM394.448 567.407C395.295 566.43 396.244 565.545 397.278 564.768C397.278 564.768 406.818 574.308 415.849 583.212C415.272 584.289 414.567 585.292 413.75 586.201C413.401 585.852 394.957 567.948 394.321 567.407H394.448ZM410.348 586.011C396.483 600.702 397.882 600.13 396.42 598.731C395.561 597.999 384.908 587.028 383.286 585.152C384.431 583.88 394.988 572.432 395.688 571.796C395.529 571.923 408.058 584.039 410.221 586.011H410.348Z" fill="#0A1A6B"/>
<path d="M393.558 579.301C390.378 582.672 387.897 583.657 388.247 585.47C389.8 587.771 391.591 589.903 393.589 591.83C393.711 591.929 393.863 591.985 394.021 591.987C394.178 591.99 394.331 591.939 394.456 591.844C394.581 591.748 394.671 591.613 394.709 591.461C394.748 591.308 394.735 591.147 394.671 591.003C394.671 591.003 392.158 586.71 391.077 585.279C391.332 584.961 394.035 581.336 394.766 580.509C394.926 580.349 395.016 580.132 395.016 579.905C395.016 579.678 394.926 579.461 394.766 579.301C394.606 579.141 394.388 579.051 394.162 579.051C393.935 579.051 393.718 579.141 393.558 579.301Z" fill="#0A1A6B"/>
<path d="M440.494 618.319L362.521 617.811C362.521 612.373 360.772 567.217 360.644 563.369C360.644 562.192 358.768 562.192 358.832 563.369C358.832 566.549 359.977 614.821 360.136 617.779H275.261C275.261 612.627 274.435 572.209 274.371 569.443C274.371 569.215 274.281 568.997 274.12 568.836C273.958 568.675 273.74 568.584 273.512 568.584C273.285 568.584 273.066 568.675 272.905 568.836C272.744 568.997 272.654 569.215 272.654 569.443V617.779C266.039 617.779 196.334 617.779 186.794 618.478C186.59 618.517 186.407 618.626 186.275 618.786C186.143 618.945 186.071 619.146 186.071 619.353C186.071 619.56 186.143 619.761 186.275 619.92C186.407 620.08 186.59 620.188 186.794 620.227C195.284 620.609 432.862 621.054 440.653 619.242C440.756 619.202 440.842 619.128 440.897 619.032C440.952 618.936 440.971 618.824 440.952 618.715C440.934 618.606 440.878 618.507 440.794 618.435C440.711 618.363 440.605 618.322 440.494 618.319ZM211.789 44.5201C212.52 45.7921 219.961 46.2055 220.629 45.9511C221.068 45.7971 221.447 45.5076 221.71 45.1243C224.233 47.2282 226.877 49.182 229.628 50.9755C230.021 51.2928 230.476 51.5245 230.963 51.656C231.45 51.7874 231.96 51.8156 232.459 51.7387C233.794 51.3571 258.884 36.4111 259.266 36.1567C260.92 35.1391 260.951 34.1215 260.729 33.4537C260.252 32.1499 234.621 20.1295 230.519 15.6457C230.4 15.5597 230.265 15.498 230.122 15.4642C229.98 15.4304 229.832 15.4252 229.687 15.4488C229.542 15.4725 229.403 15.5245 229.279 15.602C229.154 15.6794 229.046 15.7808 228.961 15.9001C225.781 19.5571 222.95 23.3095 220.057 27.0301C217.143 26.9404 214.231 27.2615 211.407 27.9841C211.095 33.4975 211.223 39.027 211.789 44.5201ZM233.635 34.9801C233.311 35.8682 232.694 36.6196 231.886 37.1107C230.296 37.6513 228.706 36.1567 228.166 35.4889C226.417 33.4537 230.392 29.1289 233.031 32.5315C233.361 32.8759 233.591 33.3031 233.697 33.7679C233.804 34.2326 233.782 34.7174 233.635 35.1709V34.9801ZM231.346 29.0971C230.394 28.9299 229.414 29.0304 228.516 29.3874C227.619 29.7444 226.837 30.3438 226.26 31.1188C225.683 31.8938 225.333 32.8139 225.248 33.7765C225.163 34.7391 225.348 35.7062 225.781 36.5701C226.43 37.6382 227.379 38.4913 228.51 39.0229C229.641 39.5545 230.904 39.7411 232.141 39.5593C232.994 39.2478 233.753 38.7212 234.344 38.0304C234.934 37.3396 235.336 36.508 235.511 35.6161C239.009 35.6161 251.03 35.6161 255.832 35.3935L232.141 49.1947C230.805 48.6223 222.982 42.8347 222.028 42.0715C222.028 40.3225 222.028 29.8603 221.806 28.1749C224.477 24.9949 227.212 21.5923 229.819 18.1897C233.699 21.3697 251.602 30.9097 256.849 33.6763H235.607C235.468 32.5818 234.978 31.5618 234.209 30.7703C233.441 29.9788 232.436 29.4585 231.346 29.2879V29.0971ZM213.538 29.6695L219.421 29.4469C219.421 30.4327 219.802 42.1669 219.643 43.8205C217.635 43.9529 215.619 43.8569 213.633 43.5343C213.824 41.3401 213.665 32.3407 213.538 29.8603V29.6695ZM113.972 196.842C114.305 197.035 114.684 197.136 115.069 197.136C115.454 197.136 115.832 197.035 116.166 196.842C118.678 195.602 123.671 191.245 138.235 181.61C138.663 181.378 139.031 181.051 139.312 180.654C139.593 180.257 139.78 179.801 139.857 179.32C139.857 179.32 140.398 165.742 139.634 165.297C137.186 163.77 130.094 158.937 128.059 159.255C127.805 159.255 100.966 175.981 100.902 176.776C100.636 180.247 100.583 183.73 100.743 187.207C104.938 190.703 109.357 193.922 113.972 196.842ZM102.683 178.971C105.131 180.624 111.968 185.331 113.845 186.285V193.535C101.951 185.585 102.715 186.921 102.81 184.567C102.842 183.264 102.746 180.211 102.683 178.971ZM115.148 183.645C114.946 183.795 114.701 183.876 114.449 183.876C114.197 183.876 113.952 183.795 113.749 183.645C113.24 183.327 106.117 178.239 104.209 176.872C129.204 160.972 128.314 160.781 129.649 161.258C130.285 161.512 133.274 163.42 137.313 166.092C132.543 170.162 115.625 183.327 115.148 183.645ZM137.408 179.416C136.741 180.052 119.537 191.468 115.721 193.948V185.998C117.979 184.281 132.893 172.579 137.536 168.604C137.663 179.098 137.854 179.098 137.567 179.416H137.408ZM466.443 198.782C472.382 198.643 478.16 196.824 483.106 193.535C485.574 191.98 487.432 189.625 488.37 186.863C489.308 184.102 489.268 181.102 488.258 178.366C490.357 176.776 497.066 171.084 498.37 169.844C501.073 170.003 504.221 165.201 505.907 162.594C506.606 161.512 507.529 160.399 507.052 159.159C502.759 154.616 498.215 150.316 493.441 146.28C493.122 145.943 492.708 145.71 492.253 145.614C491.799 145.517 491.326 145.561 490.897 145.74C487.73 148.81 484.876 152.187 482.375 155.82C482.265 156.291 482.321 156.785 482.534 157.219C482.534 157.442 478.114 170.257 477.573 171.816C475.193 172.056 472.983 173.159 471.361 174.916C469.738 176.674 468.814 178.964 468.764 181.356C468.383 190.641 475.729 193.63 466.157 197.065C466.024 197.179 465.923 197.325 465.863 197.49C465.804 197.654 465.787 197.831 465.816 198.004C465.845 198.177 465.918 198.339 466.027 198.475C466.137 198.611 466.28 198.717 466.443 198.782ZM484.823 156.393C486.89 153.357 489.325 150.591 492.074 148.156C493.791 149.524 503.713 158.682 504.794 160.177C503.999 161.544 499.547 167.332 498.434 167.459C498.338 167.364 485.237 156.774 484.823 156.393ZM487.113 176.299C485.492 173.923 483.002 172.279 480.181 171.72C480.817 169.59 483.138 161.799 483.933 158.65C486.35 160.717 492.328 165.742 495.985 168.636C494.554 170.067 489.148 174.678 487.113 176.299ZM471.531 196.27C474.011 194.012 473.407 191.055 472.262 188.224C470.227 181.864 470.831 177.762 474.234 175.504C475.112 174.947 476.093 174.571 477.118 174.397C478.144 174.224 479.193 174.256 480.206 174.493C481.219 174.73 482.174 175.166 483.016 175.777C483.858 176.387 484.57 177.16 485.11 178.048C490.134 185.967 480.721 194.457 471.531 196.27ZM267.629 34.9801C268.933 34.9801 276.565 33.9943 283.529 33.2629C283.774 33.2629 284.009 33.1658 284.181 32.9928C284.354 32.8199 284.452 32.5853 284.452 32.3407C284.452 32.0962 284.354 31.8616 284.181 31.6886C284.009 31.5157 283.774 31.4185 283.529 31.4185C280.922 31.6729 268.679 32.4043 267.343 32.6905C267.085 32.7766 266.865 32.9494 266.72 33.1795C266.575 33.4095 266.514 33.6828 266.548 33.9526C266.582 34.2225 266.708 34.4723 266.905 34.6597C267.102 34.847 267.358 34.9602 267.629 34.9801ZM292.561 32.9449C293.419 32.9449 310.305 31.5457 314.026 31.7365C315.266 31.7365 315.361 29.9239 314.026 29.8285C306.758 29.4741 299.473 29.7081 292.243 30.5281C291.968 30.6182 291.733 30.8014 291.579 31.0462C291.425 31.2909 291.362 31.5817 291.399 31.8684C291.437 32.1551 291.574 32.4196 291.786 32.6161C291.998 32.8127 292.272 32.929 292.561 32.9449ZM323.597 31.1323L337.303 30.7507C337.53 30.7094 337.736 30.5897 337.884 30.4125C338.032 30.2352 338.113 30.0117 338.113 29.7808C338.113 29.55 338.032 29.3264 337.884 29.1492C337.736 28.9719 337.53 28.8522 337.303 28.8109L323.661 28.4293C323.337 28.4709 323.038 28.6273 322.819 28.8702C322.6 29.1132 322.475 29.4265 322.468 29.7535C322.46 30.0805 322.57 30.3994 322.777 30.6523C322.984 30.9053 323.275 31.0756 323.597 31.1323ZM348.211 31.5775C354.062 31.5775 375.177 32.5633 380.329 33.4537C381.601 33.7081 382.046 31.7365 380.774 31.5139C369.986 29.8735 359.091 29.0443 348.179 29.0335C347.841 29.0378 347.52 29.1758 347.284 29.4173C347.048 29.6589 346.919 29.9841 346.923 30.3214C346.927 30.6588 347.065 30.9807 347.307 31.2162C347.548 31.4518 347.873 31.5818 348.211 31.5775ZM390.6 37.0789C399.019 39.5689 406.798 43.8543 413.401 49.6399C414.418 50.5621 415.849 49.0675 414.863 48.1453C408.193 41.7556 400.076 37.075 391.204 34.5031C390.883 34.4735 390.562 34.5609 390.301 34.7493C390.039 34.9376 389.855 35.2142 389.781 35.5281C389.707 35.8419 389.75 36.1717 389.9 36.4568C390.051 36.7418 390.299 36.9628 390.6 37.0789ZM418.807 79.5001C418.543 79.5645 418.312 79.7229 418.157 79.9456C418.002 80.1684 417.934 80.44 417.965 80.7096C417.996 80.9791 418.125 81.2279 418.327 81.4093C418.529 81.5906 418.79 81.692 419.061 81.6943C423.259 81.6943 428.188 76.7971 428.601 70.0237C429.014 63.2503 424.372 57.8125 419.92 53.2651C419.73 53.0712 419.471 52.9605 419.199 52.9575C418.928 52.9545 418.667 53.0595 418.473 53.2492C418.279 53.439 418.168 53.6981 418.165 53.9694C418.162 54.2407 418.267 54.5022 418.457 54.6961C423.481 59.9113 425.93 64.6813 425.962 69.3241C426.046 71.5694 425.392 73.7805 424.1 75.6185C422.807 77.4565 420.948 78.82 418.807 79.5001ZM384.113 89.8351C387.293 89.8351 408.249 85.0333 411.715 84.2065C411.958 84.1265 412.162 83.958 412.286 83.7346C412.41 83.5112 412.446 83.2493 412.385 83.0009C412.325 82.7525 412.174 82.5358 411.961 82.3939C411.749 82.2519 411.491 82.1952 411.238 82.2349C406.5 83.3161 389.773 86.2417 383.89 87.2593C383.581 87.3274 383.308 87.5055 383.12 87.7604C382.933 88.0153 382.844 88.3297 382.872 88.6449C382.899 88.9601 383.04 89.2546 383.268 89.4736C383.497 89.6926 383.797 89.8211 384.113 89.8351ZM375.495 87.7363C368.722 88.4677 361.63 89.1037 354.793 90.1213C354.506 90.2074 354.257 90.3899 354.088 90.6382C353.92 90.8864 353.842 91.1851 353.868 91.484C353.894 91.7829 354.023 92.0636 354.232 92.2788C354.441 92.494 354.718 92.6305 355.016 92.6653C356.956 92.6653 372.474 90.6301 375.59 90.2485C377.212 90.0259 377.117 87.5137 375.495 87.7363ZM327.541 95.8771C329.385 95.8771 342.105 93.8102 345.062 93.3967C345.31 93.3343 345.527 93.1833 345.672 92.9723C345.816 92.7614 345.879 92.5048 345.848 92.251C345.816 91.9971 345.693 91.7634 345.502 91.5937C345.311 91.4241 345.064 91.3302 344.808 91.3297C340.928 91.7749 331.102 92.6335 327.286 93.3013C326.975 93.3709 326.701 93.5517 326.514 93.8096C326.328 94.0676 326.242 94.385 326.273 94.7018C326.305 95.0187 326.451 95.3131 326.684 95.5296C326.918 95.7462 327.222 95.8698 327.541 95.8771ZM274.466 100.456C281.272 100.456 288.236 99.2479 294.977 98.6119C296.377 98.6119 296.377 96.2905 294.977 96.4177C288.204 96.9583 281.113 97.2445 274.276 98.1985C272.908 98.3575 273.067 100.456 274.466 100.456ZM240.949 103.382C240.67 103.448 240.425 103.614 240.259 103.848C240.094 104.083 240.02 104.37 240.051 104.655C240.082 104.94 240.216 105.204 240.429 105.397C240.641 105.59 240.917 105.699 241.204 105.703C243.366 105.703 260.824 103.128 263.464 102.778C263.742 102.712 263.985 102.545 264.146 102.31C264.307 102.074 264.375 101.787 264.335 101.504C264.295 101.221 264.151 100.963 263.931 100.781C263.711 100.599 263.431 100.506 263.146 100.52C258.98 101.029 244.479 102.651 240.949 103.382ZM192.518 112.477C204.859 109.887 217.333 107.976 229.883 106.753C231.536 106.753 231.473 104.05 229.883 104.209C217.176 104.966 204.569 106.925 192.232 110.06C191.958 110.148 191.724 110.329 191.569 110.571C191.414 110.812 191.347 111.101 191.381 111.386C191.415 111.671 191.547 111.936 191.754 112.135C191.961 112.334 192.231 112.455 192.518 112.477ZM149.969 128.886C158.449 123.805 167.712 120.162 177.381 118.105C179.066 117.756 178.399 115.212 176.745 115.561C166.788 117.538 157.246 121.217 148.538 126.437C148.266 126.65 148.079 126.955 148.014 127.295C147.949 127.635 148.01 127.987 148.184 128.286C148.359 128.585 148.636 128.811 148.964 128.921C149.293 129.031 149.65 129.019 149.969 128.886ZM123.098 154.453C126.608 145 133.373 137.107 142.178 132.193C143.355 131.557 142.369 129.808 141.161 130.412C131.574 135.178 124.21 143.477 120.618 153.562C120.014 155.343 122.494 156.043 123.098 154.453ZM130.031 192.486C129.077 191.404 127.55 192.899 128.441 193.948C130.667 196.524 142.401 205.555 144.786 205.555C145.036 205.553 145.279 205.469 145.477 205.316C145.675 205.163 145.817 204.949 145.882 204.708C145.947 204.466 145.931 204.21 145.836 203.978C145.742 203.746 145.574 203.552 145.358 203.425C139.964 200.195 134.839 196.537 130.031 192.486ZM174.36 212.869C167.182 212.16 160.156 210.347 153.531 207.495C152.068 206.859 150.86 209.022 152.354 209.721C159.239 212.983 166.667 214.945 174.265 215.509C176.014 215.604 176.014 213.06 174.36 212.869ZM181.261 217.226C184.949 217.767 199.991 220.215 203.807 220.406C204.123 220.415 204.431 220.307 204.671 220.101C204.912 219.896 205.067 219.608 205.107 219.294C205.146 218.981 205.068 218.663 204.886 218.404C204.705 218.145 204.433 217.963 204.125 217.894C200.468 217.131 185.554 215.35 181.865 214.714C180.37 214.682 179.766 216.972 181.261 217.226ZM230.264 221.106C224.095 221.653 217.878 221.137 211.884 219.579C211.635 219.551 211.383 219.613 211.176 219.754C210.968 219.895 210.818 220.106 210.752 220.348C210.687 220.591 210.711 220.849 210.819 221.075C210.928 221.301 211.114 221.482 211.343 221.583C217.532 223.386 223.998 224.043 230.423 223.522C231.854 223.363 231.823 221.01 230.264 221.106ZM441.607 205.492C448.235 204.766 454.768 203.348 461.101 201.262C462.436 200.817 461.864 198.718 460.496 199.132C454.319 200.927 447.983 202.12 441.575 202.693C439.731 202.884 439.763 205.651 441.607 205.492ZM412.097 207.909C411.841 207.99 411.62 208.158 411.472 208.382C411.324 208.607 411.258 208.876 411.284 209.143C411.31 209.411 411.427 209.662 411.615 209.854C411.804 210.046 412.052 210.167 412.319 210.198C414.641 210.198 430.509 207.4 433.212 207.018C434.77 206.732 434.166 204.474 432.671 204.697C424.467 205.873 418.361 206.7 412.097 207.909ZM403.861 208.894C395.942 210.294 387.961 211.12 380.392 211.852C378.739 212.043 378.802 214.587 380.392 214.459C388.403 213.814 396.374 212.753 404.274 211.279C404.431 211.252 404.58 211.194 404.715 211.109C404.849 211.024 404.965 210.914 405.057 210.784C405.148 210.654 405.213 210.507 405.248 210.352C405.283 210.197 405.287 210.037 405.26 209.88C405.233 209.724 405.175 209.574 405.09 209.44C405.005 209.305 404.894 209.189 404.764 209.097C404.634 209.006 404.488 208.941 404.333 208.906C404.178 208.871 404.017 208.867 403.861 208.894ZM171.53 322.23C172.929 322.23 172.993 320.258 171.53 320.067C165.078 319.106 158.52 319.106 152.068 320.067C151.763 320.134 151.494 320.315 151.316 320.572C151.137 320.829 151.063 321.144 151.107 321.454C151.151 321.763 151.311 322.045 151.554 322.242C151.797 322.439 152.106 322.537 152.418 322.516C158.767 321.853 165.163 321.757 171.53 322.23ZM453.882 320.544C453.618 320.627 453.39 320.798 453.237 321.029C453.084 321.259 453.015 321.535 453.041 321.811C453.067 322.086 453.187 322.345 453.381 322.542C453.574 322.74 453.83 322.865 454.105 322.897C454.423 322.897 471.181 322.42 475.22 322.897C476.301 323.056 476.651 321.403 475.57 321.244C468.373 320.404 461.118 320.17 453.882 320.544ZM445.201 323.056C445.454 323.056 445.696 322.956 445.875 322.777C446.054 322.598 446.155 322.355 446.155 322.102C446.155 321.849 446.054 321.607 445.875 321.428C445.696 321.249 445.454 321.148 445.201 321.148C440.514 320.844 435.807 321.176 431.209 322.134C429.841 322.42 430.223 324.424 431.527 324.424C436.012 323.413 440.604 322.954 445.201 323.056ZM517.577 362.52C517.323 363.792 519.167 364.587 519.708 363.347C522.443 357.178 523.81 347.733 520.376 341.087C519.708 339.815 517.8 340.896 518.436 342.168C522.284 349.8 518.595 357.591 517.577 362.52ZM133.561 457.92C129.086 461.637 125.344 466.156 122.526 471.244C122.463 471.349 122.422 471.465 122.404 471.585C122.386 471.705 122.392 471.828 122.422 471.946C122.481 472.185 122.633 472.39 122.844 472.516C123.055 472.643 123.307 472.68 123.546 472.621C123.784 472.561 123.989 472.409 124.116 472.198C127.026 467.404 130.749 463.153 135.119 459.637C136.391 458.715 134.833 457.062 133.561 457.92ZM154.803 439.254C150.446 442.513 146.303 446.05 142.401 449.843C142.211 450.037 142.106 450.298 142.109 450.57C142.112 450.841 142.223 451.1 142.417 451.29C142.611 451.48 142.872 451.585 143.144 451.582C143.415 451.579 143.674 451.468 143.864 451.274C145.645 449.398 155.216 441.925 156.17 441.13C157.124 440.335 155.98 438.84 154.803 439.254ZM164.343 433.466C165.011 433.466 163.039 434.102 174.901 426.279C175.148 426.108 175.323 425.851 175.391 425.558C175.458 425.265 175.414 424.957 175.267 424.694C175.12 424.432 174.881 424.234 174.595 424.139C174.31 424.044 173.999 424.059 173.724 424.18C170.219 426.569 166.873 429.182 163.707 432.003C163.6 432.13 163.531 432.284 163.507 432.448C163.483 432.612 163.505 432.78 163.571 432.932C163.638 433.084 163.745 433.214 163.881 433.309C164.017 433.403 164.177 433.458 164.343 433.466Z" fill="#0A1A6B"/>
<path d="M180.592 420.873C181.419 421.223 180.878 420.873 190.895 414.513C190.251 422.498 190.368 430.527 191.245 438.49C186.284 435.794 181.523 432.744 176.999 429.364C176.14 428.696 174.995 429.904 175.886 430.636C180.828 434.87 186.15 438.638 191.786 441.893C195.954 473.549 212.104 502.402 236.91 522.506C225.526 525.177 218.339 526.672 215.54 526.958C214.332 526.958 214.332 528.929 215.54 528.929C218.307 528.929 235.924 525.495 239.645 524.732C285.31 561.079 345.348 557.518 389.105 524.032C397.865 526.348 406.767 528.09 415.753 529.247C416.032 529.226 416.295 529.109 416.497 528.916C416.7 528.723 416.829 528.466 416.862 528.188C416.896 527.911 416.833 527.63 416.682 527.394C416.532 527.158 416.305 526.981 416.039 526.894C412.096 526.226 401.03 524.128 391.49 522.156C415.414 503.208 431.358 475.973 436.169 445.836C437.377 445.073 438.554 444.246 439.699 443.387C440.843 442.529 439.699 440.525 438.458 441.32L436.646 442.433C440.525 408.662 428.632 375.017 407.612 349.736C413.591 343.154 417.757 335.363 415.308 326.713C418.322 325.795 421.391 325.072 424.498 324.551C425.897 324.36 425.389 322.293 424.053 322.484C420.832 322.896 417.644 323.533 414.513 324.392C412.19 318.633 408.201 313.699 403.057 310.22C397.913 306.742 391.848 304.878 385.639 304.867C390.718 299.526 394.446 293.047 396.509 285.971C398.573 278.895 398.913 271.428 397.5 264.194C391.617 237.164 370.597 211.47 344.14 196.683C344.788 193.104 344.592 189.424 343.567 185.935C342.868 182.755 340.769 181.673 338.32 180.083C337.048 179.257 335.84 178.493 334.504 177.73C338.013 172.27 339.848 165.903 339.783 159.413C346.938 158.714 347.192 148.283 339.338 146.693C347.32 109.233 278.027 102.873 282.098 147.902C280.686 148.305 279.422 149.108 278.457 150.214C277.492 151.32 276.868 152.682 276.66 154.135C276.472 155.131 276.532 156.158 276.835 157.125C277.138 158.093 277.675 158.97 278.398 159.681C279.121 160.392 280.008 160.913 280.981 161.199C281.953 161.485 282.981 161.527 283.974 161.321C283.682 165.439 284.541 169.557 286.454 173.215C284.864 173.58 283.382 174.319 282.133 175.369C280.883 176.42 279.901 177.752 279.268 179.257C277.858 183.27 277.583 187.594 278.473 191.754C253.192 203.287 232.978 223.636 221.614 248.994C212.615 269.505 217.003 284.515 232.903 300.16C225.783 297.864 218.087 298.1 211.12 300.828C206.751 302.707 202.844 305.516 199.669 309.058C196.495 312.6 194.131 316.791 192.74 321.339C189.681 320.85 186.575 320.722 183.486 320.957C183.275 320.997 183.084 321.109 182.947 321.275C182.809 321.44 182.734 321.649 182.734 321.864C182.734 322.079 182.809 322.287 182.947 322.452C183.084 322.618 183.275 322.73 183.486 322.77C186.416 322.645 189.346 322.989 192.167 323.788C189.973 337.175 201.326 348.496 212.36 356.446C200.518 372.536 193.224 391.517 191.245 411.397C187.514 413.671 183.915 416.155 180.465 418.838C180.284 418.945 180.135 419.101 180.036 419.287C179.938 419.474 179.893 419.684 179.906 419.894C179.919 420.105 179.99 420.308 180.111 420.48C180.232 420.653 180.399 420.789 180.592 420.873ZM321.18 186.348L322.516 185.935C323.247 186.698 325.219 188.415 326.427 189.433C316.982 194.393 305.28 193.98 293.069 188.033C294.436 186.793 296.662 184.535 297.489 183.581C299.676 184.419 301.905 185.141 304.167 185.744C305.095 187.12 306.336 188.257 307.788 189.062C309.239 189.868 310.861 190.318 312.52 190.377C314.179 190.436 315.828 190.102 317.333 189.401C318.838 188.701 320.156 187.655 321.18 186.348ZM295.74 182.691C294.659 183.899 292.242 186.475 291.447 187.143C290.557 186.655 289.666 186.147 288.776 185.617C288.603 185.511 288.395 185.479 288.198 185.526C288.002 185.574 287.832 185.698 287.726 185.871C287.621 186.044 287.589 186.252 287.636 186.448C287.684 186.645 287.808 186.815 287.981 186.92C295.708 191.881 303.245 195.634 312.371 195.634C316.069 195.809 319.759 195.155 323.17 193.718C326.582 192.282 329.629 190.101 332.087 187.334C332.218 187.199 332.29 187.018 332.287 186.83C332.284 186.642 332.206 186.463 332.072 186.332C331.937 186.201 331.755 186.13 331.567 186.133C331.38 186.136 331.201 186.213 331.07 186.348C330.209 187.058 329.306 187.717 328.367 188.32C327.508 187.588 325.537 185.998 324.583 185.14C327.818 183.918 330.756 182.021 333.2 179.575C336.38 180.923 339.233 182.941 341.564 185.489C342.732 188.954 342.919 192.674 342.104 196.238C339.179 205.269 315.52 214.205 291.224 201.517C282.67 197.224 279.077 193.694 280.603 183.009C280.717 181.12 281.443 179.319 282.67 177.879C283.898 176.439 285.561 175.438 287.408 175.027C289.504 178.236 292.368 180.871 295.74 182.691ZM321.625 209.88C326.809 209.244 339.115 206.891 343.472 198.845C368.753 212.837 395.115 244.129 395.719 272.653C395.937 278.923 394.684 285.156 392.061 290.855C389.439 296.553 385.518 301.559 380.614 305.471C376.116 306.298 371.806 307.936 367.894 310.304C370.693 267.088 370.788 269.696 370.47 269.378C370.152 269.06 365.318 269.028 357.432 268.837C358.418 267.597 361.057 264.099 361.661 263.399C361.809 263.243 361.889 263.035 361.883 262.82C361.877 262.606 361.786 262.402 361.63 262.255C361.474 262.107 361.265 262.027 361.051 262.033C360.836 262.039 360.632 262.13 360.485 262.286C358.477 264.515 356.354 266.638 354.125 268.646H353.457C354.268 259.002 354.481 249.316 354.093 239.645C354.093 238.882 352.757 238.882 352.821 239.645C353.139 244.192 351.008 264.576 350.754 268.487C327.063 268.01 287.567 267.597 263.717 267.374C260.795 257.486 259.558 247.177 260.06 236.878C260.06 235.797 258.534 235.797 258.439 236.878C257.411 247.122 258.262 257.468 260.951 267.406H260.283C257.097 264.221 254.072 260.878 251.22 257.389C251.104 257.23 250.934 257.119 250.741 257.079C250.548 257.038 250.348 257.071 250.178 257.17C250.007 257.268 249.88 257.427 249.82 257.614C249.76 257.802 249.772 258.005 249.853 258.184C250.202 258.852 254.018 264.544 256.531 267.533H244.192C243.27 267.533 243.556 267.533 243.493 268.265C243.175 271.858 244.319 291.701 245.21 305.821C243.292 304.625 241.295 303.562 239.231 302.641C222.854 286.55 214.141 274.021 223.045 252.524C233.675 226.633 253.702 205.72 279.109 193.98C282.67 201.58 300.764 212.36 321.625 209.88ZM245.528 269.791C249.153 269.791 360.707 270.777 368.498 271.477C367.004 284.006 364.237 321.021 363.283 333.455H356.319C352.376 336.857 323.12 361.153 321.021 362.933C320.29 363.506 321.625 363.983 324.773 366.813C326.754 368.267 328.414 370.112 329.65 372.235C330.887 374.357 331.673 376.712 331.96 379.151C331.968 379.264 332.019 379.369 332.101 379.446C332.184 379.523 332.293 379.565 332.405 379.565C343.726 380.042 353.298 390.122 345.443 396.355C338.225 402.079 327.063 396.355 321.53 391.076C326.522 384.557 329.448 378.865 323.851 372.982C323.183 372.283 315.997 366.431 306.87 358.99C272.303 330.784 275.07 332.374 274.625 332.374C272.844 332.374 253.955 331.07 250.552 330.879C248.04 310.527 246.196 280.794 245.528 269.791ZM278.791 395.21C274.116 395.56 266.261 396.164 262.891 391.426C260.696 388.246 263.972 384.526 267.502 383.508C275.229 386.306 287.377 390.218 291.32 391.458C287.397 393.436 283.155 394.706 278.791 395.21ZM262.255 394.574C265.435 397.754 270.841 398.136 275.165 398.072C282.222 398.038 289.144 396.14 295.231 392.571C302.195 394.606 309.096 396.355 316.283 397.882C316.369 397.911 316.462 397.912 316.548 397.883C316.635 397.854 316.709 397.798 316.76 397.723C317.968 396.228 319.145 394.543 320.226 393.112C327.54 399.917 339.751 404.401 347.256 398.613C352.789 394.32 351.931 386.974 346.397 382.427C372.728 374.699 393.684 363.601 405.45 351.931C416.431 364.522 424.558 379.34 429.273 395.368C433.989 411.396 435.18 428.255 432.766 444.787C426.049 449.181 419.095 453.205 411.937 456.839C411.764 456.928 411.627 457.073 411.547 457.25C411.467 457.427 411.45 457.626 411.498 457.814C411.546 458.003 411.657 458.169 411.811 458.286C411.966 458.404 412.156 458.465 412.351 458.461C412.764 458.461 425.484 452.323 432.194 448.348C426.702 477.084 411.281 502.974 388.628 521.488C383.508 520.407 379.088 519.389 376.989 518.753C375.844 518.372 375.335 520.089 376.448 520.502C378.388 521.202 382.013 522.188 386.338 523.301C365.826 538.931 340.773 547.438 314.985 547.53C289.197 547.622 264.084 539.293 243.461 523.81C247.272 523.013 251.023 521.951 254.686 520.63C256.085 520.025 255.227 517.958 253.796 518.276L240.567 521.456C216.331 502.003 200.09 474.321 194.934 443.674L195.57 443.96C197.033 444.596 198.178 442.592 196.81 441.797L194.457 440.43C190.252 411.406 197.331 381.873 214.237 357.909C230.073 368.041 247.043 376.28 264.799 382.459C259.774 385.003 258.089 390.472 262.255 394.574ZM338.129 158.587C337.462 164.947 336.508 171.307 332.564 176.204C330.402 178.907 325.791 182.914 322.007 183.009C319.495 183.009 318.604 181.546 316.982 179.829C314.852 177.349 313.802 176.045 312.658 176.236C310.114 176.554 310.559 181.355 306.488 183.74C305.248 184.44 300.923 183.2 297.616 181.61C293.74 179.687 290.544 176.624 288.458 172.833C286.372 169.042 285.495 164.703 285.946 160.399C285.946 159.636 284.833 159.159 284.387 159.382C283.696 159.621 282.956 159.679 282.235 159.552C281.515 159.424 280.84 159.115 280.273 158.653C279.706 158.191 279.266 157.592 278.996 156.913C278.725 156.233 278.633 155.496 278.727 154.771C279.935 148.411 287.059 150.001 288.935 153.689C288.997 153.782 289.091 153.851 289.199 153.882C289.307 153.913 289.422 153.905 289.524 153.859C289.627 153.813 289.71 153.733 289.759 153.632C289.808 153.532 289.821 153.417 289.793 153.308C288.512 149.965 288.353 146.295 289.34 142.854C290.326 139.412 292.405 136.384 295.263 134.228C299.806 137.382 305.204 139.072 310.734 139.072C316.264 139.072 321.662 137.382 326.204 134.228C332.342 138.998 332.564 148.919 332.119 152.386C332.114 152.47 332.129 152.553 332.162 152.631C332.195 152.708 332.246 152.777 332.31 152.831C332.851 153.244 333.741 152.163 334.186 151.654C334.758 150.766 335.579 150.067 336.546 149.643C337.513 149.218 338.584 149.089 339.624 149.269C340.663 149.421 341.611 149.949 342.287 150.752C342.964 151.556 343.322 152.579 343.295 153.629C343.267 154.679 342.856 155.683 342.139 156.45C341.421 157.217 340.447 157.694 339.401 157.792C339.179 157.601 338.193 157.919 338.129 158.587Z" fill="#0A1A6B"/>
<path d="M292.561 507.369C292.561 507.783 292.879 508.132 292.561 507.369C283.578 511.003 274.287 513.824 264.799 515.796C263.655 516.019 264.036 517.704 265.181 517.577C275.004 516.472 284.577 513.753 293.515 509.532C294.819 508.8 293.96 506.86 292.561 507.369ZM337.081 493.854C337.844 493.854 363.602 483.742 366.114 482.12C367.354 481.293 366.496 479.163 365.033 479.703C362.457 480.657 341.978 490.324 336.858 492.137C336.671 492.208 336.514 492.34 336.411 492.512C336.309 492.684 336.267 492.885 336.293 493.083C336.318 493.282 336.41 493.466 336.553 493.605C336.696 493.745 336.882 493.833 337.081 493.854ZM376.449 477C377.276 477 398.709 467.238 400.713 465.711C401.698 464.948 401.031 463.135 399.727 463.644C397.787 464.376 380.202 473.184 376.163 474.87C375.937 474.964 375.749 475.13 375.627 475.343C375.505 475.555 375.457 475.802 375.489 476.045C375.522 476.287 375.634 476.512 375.807 476.685C375.981 476.858 376.206 476.969 376.449 477ZM438.841 413.082C440.622 414.227 447.236 419.442 449.017 420.587C449.289 420.745 449.609 420.799 449.918 420.739C450.227 420.679 450.504 420.509 450.697 420.261C450.891 420.013 450.989 419.704 450.972 419.39C450.955 419.075 450.826 418.778 450.607 418.552C448.921 417.121 441.639 412.573 439.827 411.492C439.616 411.361 439.362 411.32 439.12 411.377C438.879 411.433 438.669 411.583 438.539 411.794C438.408 412.005 438.366 412.259 438.423 412.501C438.48 412.742 438.63 412.951 438.841 413.082ZM478.75 439.476C477.764 438.681 476.428 440.112 477.446 440.939C479.704 442.815 488.671 450.765 491.152 452.451C491.415 452.581 491.715 452.616 492.001 452.55C492.287 452.484 492.541 452.321 492.721 452.089C492.901 451.857 492.995 451.57 492.987 451.276C492.979 450.983 492.87 450.701 492.678 450.479C490.643 448.38 481.389 441.575 478.75 439.476ZM499.261 457.729C499.071 457.544 498.815 457.441 498.55 457.444C498.284 457.447 498.031 457.556 497.846 457.745C497.66 457.935 497.558 458.191 497.56 458.456C497.563 458.722 497.672 458.975 497.862 459.16C501.855 463.2 505.444 467.62 508.578 472.357C509.596 473.788 511.917 472.357 510.931 470.895C507.611 466.033 503.689 461.609 499.261 457.729ZM454.741 531.06C450.48 531.06 432.131 529.852 427.615 528.93C427.409 528.879 427.19 528.913 427.009 529.023C426.827 529.133 426.696 529.311 426.645 529.518C426.595 529.725 426.628 529.943 426.739 530.125C426.849 530.307 427.027 530.437 427.234 530.488C436.316 532.195 445.508 533.258 454.741 533.668C455.087 533.668 455.418 533.53 455.663 533.286C455.907 533.041 456.045 532.71 456.045 532.364C456.045 532.018 455.907 531.687 455.663 531.442C455.418 531.198 455.087 531.06 454.741 531.06ZM341.088 508.196C339.975 507.655 339.052 509.309 340.197 509.881C348.208 513.927 356.785 516.737 365.637 518.213C367.354 518.531 368.022 515.892 366.273 515.605C357.574 514.322 349.096 511.828 341.088 508.196ZM303.818 506.002C307.793 505.143 315.902 502.822 317.174 502.631C318.382 503.108 326.142 506.034 330.276 507.019C330.585 507.088 330.91 507.036 331.182 506.873C331.454 506.71 331.653 506.449 331.739 506.143C331.824 505.838 331.79 505.511 331.642 505.23C331.494 504.95 331.244 504.736 330.943 504.634C327.763 503.49 324.583 502.536 321.054 501.454C323.618 500.602 326.107 499.539 328.495 498.274C328.668 498.089 328.784 497.856 328.827 497.606C328.87 497.355 328.839 497.097 328.738 496.864C328.637 496.631 328.469 496.433 328.257 496.293C328.044 496.154 327.795 496.08 327.541 496.08C323.979 497.289 320.481 498.815 317.015 500.151C313.072 498.751 309.447 497.32 305.98 495.794C304.836 495.285 303.913 496.971 305.09 497.511C307.984 498.879 310.878 500.182 313.74 501.359C310.359 502.533 306.92 503.53 303.436 504.348C303.29 504.455 303.178 504.602 303.115 504.771C303.052 504.941 303.04 505.125 303.08 505.301C303.121 505.477 303.213 505.638 303.344 505.762C303.475 505.887 303.64 505.97 303.818 506.002ZM161.481 417.343C158.301 414.863 146.376 404.623 143.737 401.825C142.878 400.903 141.447 402.27 142.306 403.192C147.496 409.298 153.424 414.735 159.955 419.379C161.227 420.237 162.69 418.297 161.481 417.343ZM123.703 567.821C121.718 550.266 118.142 532.927 113.018 516.019C115.919 520.406 120.392 523.513 125.515 524.7C125.735 524.793 125.982 524.795 126.202 524.705C126.423 524.616 126.599 524.443 126.692 524.223C126.785 524.004 126.787 523.757 126.697 523.536C126.608 523.315 126.434 523.139 126.215 523.047C122.145 520.598 115.88 518.118 113.94 512.171C115.001 510.234 115.263 507.959 114.669 505.831C114.074 503.704 112.672 501.893 110.76 500.787C111.904 494.033 114.322 487.558 117.883 481.707C118.297 480.912 117.216 480.085 116.611 480.784C112.073 486.443 109.298 493.31 108.63 500.532C107.802 500.592 106.987 500.774 106.213 501.073C97.7875 479.296 85.8175 459.063 70.7875 441.193C71.3661 440.207 71.5909 439.053 71.4248 437.921C71.2587 436.79 70.7116 435.749 69.8738 434.971C69.0361 434.192 67.9579 433.723 66.8173 433.64C65.6767 433.557 64.5421 433.866 63.6007 434.515C62.5266 435.246 61.7458 436.334 61.3966 437.585C61.0473 438.836 61.1523 440.171 61.6927 441.352C62.0529 441.982 62.537 442.533 63.1157 442.971C63.6945 443.409 64.356 443.725 65.0602 443.9C65.7645 444.076 66.497 444.107 67.2135 443.991C67.9301 443.876 68.6158 443.616 69.2293 443.229C83.9655 460.897 95.7753 480.812 104.209 502.218C99.0259 506.797 103.542 515.383 110.061 514.683C115.435 532.183 119.183 550.141 121.254 568.33C120.3 568.836 119.561 569.669 119.172 570.676C118.783 571.683 118.77 572.797 119.137 573.813C119.503 574.828 120.224 575.678 121.166 576.205C122.109 576.732 123.209 576.901 124.267 576.681C125.324 576.462 126.266 575.868 126.921 575.009C127.575 574.15 127.898 573.084 127.829 572.006C127.761 570.929 127.305 569.912 126.547 569.143C125.789 568.374 124.779 567.905 123.703 567.821ZM69.0703 438.84C69.182 439.259 69.1958 439.699 69.1108 440.124C69.0257 440.549 68.844 440.949 68.5797 441.293C68.3153 441.637 67.9755 441.916 67.5864 442.108C67.1973 442.299 66.7693 442.399 66.3355 442.399C65.9018 442.399 65.4738 442.299 65.0847 442.108C64.6956 441.916 64.3557 441.637 64.0914 441.293C63.8271 440.949 63.6454 440.549 63.5603 440.124C63.4752 439.699 63.4891 439.259 63.6007 438.84C63.4891 438.421 63.4752 437.982 63.5603 437.556C63.6454 437.131 63.8271 436.731 64.0914 436.387C64.3557 436.043 64.6956 435.765 65.0847 435.573C65.4738 435.381 65.9018 435.281 66.3355 435.281C66.7693 435.281 67.1973 435.381 67.5864 435.573C67.9755 435.765 68.3153 436.043 68.5797 436.387C68.844 436.731 69.0257 437.131 69.1108 437.556C69.1958 437.982 69.182 438.421 69.0703 438.84ZM126.31 572.114C126.31 575.294 121.063 575.294 121.063 572.114C121.063 568.934 126.183 569.22 126.183 572.4L126.31 572.114ZM112.382 509.786C110.665 515.097 104.273 511.376 104.368 507.051C104.368 503.235 109.679 500.691 111.682 504.348C112.196 505.171 112.514 506.1 112.613 507.064C112.712 508.029 112.59 509.003 112.255 509.913L112.382 509.786ZM574.881 381.886C574.865 380.968 574.594 380.072 574.099 379.298C573.603 378.524 572.903 377.903 572.075 377.504C571.248 377.105 570.326 376.944 569.412 377.038C568.498 377.133 567.628 377.479 566.899 378.039C549.004 367.561 533.614 353.3 521.807 336.253C522.67 335.263 523.263 334.066 523.53 332.78C523.798 331.494 523.73 330.16 523.333 328.908C523.03 327.936 522.479 327.059 521.735 326.364C520.99 325.669 520.079 325.179 519.088 324.941C518.098 324.704 517.063 324.728 516.085 325.011C515.106 325.294 514.218 325.826 513.507 326.554C498.203 305.852 487.265 282.256 481.357 257.199C481.954 256.523 482.319 255.674 482.399 254.775C482.479 253.877 482.27 252.977 481.803 252.206C481.451 251.41 480.85 250.75 480.09 250.325C479.331 249.901 478.453 249.736 477.591 249.854C476.729 249.973 475.929 250.369 475.312 250.982C474.695 251.596 474.294 252.394 474.171 253.255C473.969 253.979 473.966 254.744 474.164 255.469C474.361 256.194 474.751 256.853 475.292 257.374C475.833 257.896 476.505 258.261 477.237 258.432C477.969 258.602 478.733 258.572 479.449 258.343C485.308 283.69 496.424 307.524 512.076 328.303C511.742 328.844 511.495 329.435 511.345 330.052C507.306 328.113 487.24 321.753 485.142 322.325C484.251 322.579 484.665 323.661 485.142 323.788C493.922 326.214 502.546 329.177 510.963 332.66C511.141 333.634 511.538 334.554 512.125 335.351C512.711 336.148 513.472 336.802 514.348 337.261C515.225 337.721 516.194 337.975 517.184 338.004C518.173 338.034 519.156 337.837 520.058 337.43C534.559 358.036 549.409 371.933 565.437 379.915C565.093 380.687 564.948 381.531 565.013 382.374C565.078 383.216 565.351 384.028 565.809 384.738C566.266 385.448 566.893 386.033 567.633 386.44C568.373 386.847 569.203 387.063 570.048 387.07C570.721 387.102 571.394 386.987 572.019 386.733C572.644 386.479 573.206 386.092 573.666 385.599C574.126 385.105 574.473 384.518 574.683 383.877C574.893 383.235 574.96 382.556 574.881 381.886ZM567.822 383.476C567.548 383.073 567.385 382.606 567.348 382.12C567.311 381.634 567.401 381.148 567.61 380.707C567.819 380.267 568.139 379.89 568.539 379.611C568.938 379.333 569.403 379.163 569.889 379.12C570.651 379.144 571.374 379.462 571.907 380.008C572.441 380.553 572.743 381.283 572.751 382.045C572.751 382.625 572.564 383.188 572.216 383.652C571.869 384.115 571.38 384.453 570.824 384.614C570.268 384.776 569.674 384.752 569.133 384.547C568.591 384.342 568.131 383.966 567.822 383.476ZM519.104 335.586C518.121 335.903 517.061 335.881 516.092 335.523C515.123 335.166 514.303 334.493 513.762 333.614C513.464 332.907 513.341 332.138 513.404 331.374C513.467 330.609 513.713 329.871 514.122 329.222C514.531 328.573 515.09 328.032 515.753 327.645C516.415 327.258 517.161 327.037 517.927 327C521.998 327 522.697 334.091 519.104 335.586ZM480.34 254.4C480.377 254.7 480.349 255.004 480.26 255.292C480.17 255.58 480.021 255.846 479.821 256.072C479.621 256.298 479.375 256.479 479.1 256.603C478.825 256.727 478.527 256.791 478.225 256.791C477.923 256.791 477.625 256.727 477.35 256.603C477.075 256.479 476.829 256.298 476.629 256.072C476.429 255.846 476.28 255.58 476.19 255.292C476.101 255.004 476.074 254.7 476.11 254.4C476.074 254.101 476.101 253.797 476.19 253.509C476.28 253.221 476.429 252.955 476.629 252.729C476.829 252.503 477.075 252.322 477.35 252.198C477.625 252.074 477.923 252.01 478.225 252.01C478.527 252.01 478.825 252.074 479.1 252.198C479.375 252.322 479.621 252.503 479.821 252.729C480.021 252.955 480.17 253.221 480.26 253.509C480.349 253.797 480.377 254.101 480.34 254.4ZM531.061 513.157C531.148 512.934 531.155 512.688 531.079 512.462C531.004 512.235 530.851 512.042 530.647 511.917C529.057 510.931 526.45 512.584 526.005 514.461C527.086 514.556 530.393 514.429 531.061 513.157Z" fill="#0A1A6B"/>
<path d="M523.492 492.137C521.425 487.763 519.099 483.515 516.527 479.417C516.386 479.208 516.169 479.062 515.923 479.008C515.676 478.954 515.419 478.997 515.203 479.127C514.987 479.258 514.829 479.466 514.762 479.709C514.695 479.952 514.723 480.212 514.842 480.435C516.986 484.202 518.846 488.125 520.407 492.169C516.859 492.555 513.486 493.911 510.657 496.088C507.829 498.265 505.655 501.179 504.374 504.51C503.093 507.841 502.754 511.461 503.394 514.972C504.035 518.483 505.63 521.75 508.005 524.414C497.001 528.696 485.364 531.125 473.566 531.601C473.354 531.641 473.164 531.753 473.026 531.919C472.889 532.084 472.814 532.292 472.814 532.507C472.814 532.722 472.889 532.931 473.026 533.096C473.164 533.261 473.354 533.374 473.566 533.414C486.145 533.681 498.646 531.365 510.295 526.608C512.678 528.499 515.472 529.801 518.453 530.411C521.433 531.02 524.514 530.918 527.448 530.115C530.382 529.311 533.085 527.827 535.338 525.784C537.592 523.741 539.333 521.196 540.419 518.355C541.506 515.514 541.908 512.457 541.593 509.432C541.278 506.406 540.255 503.498 538.607 500.941C536.958 498.385 534.731 496.253 532.105 494.718C529.479 493.183 526.528 492.288 523.492 492.105V492.137ZM519.453 521.52C519.135 519.39 519.008 517.227 518.626 515.16H513.952C513.665 517.037 513.666 518.913 513.379 520.789C513.363 520.923 513.32 521.052 513.253 521.169C513.187 521.286 513.098 521.389 512.991 521.471C512.885 521.554 512.763 521.615 512.634 521.651C512.504 521.686 512.368 521.696 512.235 521.679C512.101 521.663 511.972 521.62 511.855 521.553C511.738 521.487 511.635 521.398 511.552 521.291C511.47 521.185 511.409 521.064 511.373 520.934C511.337 520.804 511.327 520.668 511.344 520.535C511.344 518.436 513.093 505.08 513.443 503.204C513.888 500.564 515.287 500.342 516.082 500.437C517.736 500.628 518.181 502.345 518.531 503.617C519.453 507.02 521.711 517.386 522.283 520.821C522.538 522.538 519.739 523.238 519.453 521.52ZM533.731 519.072C528.611 522.633 522.156 518.372 524.191 513.443C525.495 510.263 530.551 508.101 532.682 511.408C532.938 511.943 533.064 512.53 533.049 513.123C533.035 513.715 532.88 514.296 532.598 514.817C532.315 515.339 531.914 515.785 531.425 516.121C530.937 516.457 530.376 516.673 529.788 516.75C528.733 516.889 527.664 516.889 526.608 516.75C527.011 517.195 527.483 517.571 528.007 517.863C531.187 519.199 533.318 516.814 533.954 518.15C534.003 518.284 534.009 518.43 533.969 518.568C533.928 518.705 533.845 518.826 533.731 518.913V519.072Z" fill="#0A1A6B"/>
<path d="M515.606 503.807C515.129 506.224 514.588 510.549 514.334 512.552H518.118C517.768 510.931 516.846 506.383 516.21 503.903C516.115 503.489 515.669 503.394 515.606 503.807ZM240.091 456.203C238.183 455.058 233.985 454.931 233.731 457.443C233.54 458.842 233.731 464.439 233.731 465.934C235.181 465.892 236.608 465.551 237.921 464.932C239.234 464.314 240.406 463.432 241.363 462.34C241.72 461.867 241.973 461.322 242.103 460.743C242.234 460.164 242.239 459.564 242.118 458.983C241.998 458.402 241.755 457.853 241.405 457.374C241.055 456.894 240.607 456.495 240.091 456.203Z" fill="#0A1A6B"/>
<path d="M233.731 457.443C233.985 454.931 238.183 455.058 240.091 456.203C240.607 456.495 241.055 456.894 241.405 457.374C241.755 457.853 241.998 458.402 242.118 458.983C242.239 459.564 242.234 460.164 242.103 460.743C241.973 461.322 241.721 461.867 241.363 462.34C240.406 463.432 239.234 464.314 237.921 464.932C236.608 465.551 235.181 465.892 233.731 465.934C233.731 464.439 233.54 458.842 233.731 457.443Z" fill="#0C31F1"/>
<path d="M294.437 490.77C285.647 487.55 277.047 483.834 268.679 479.64C270.349 476.226 271.331 472.516 271.567 468.723C271.804 464.93 271.292 461.127 270.059 457.532C268.826 453.937 266.897 450.62 264.382 447.77C261.867 444.92 258.816 442.594 255.402 440.923C251.988 439.253 248.279 438.271 244.485 438.034C240.692 437.798 236.889 438.31 233.294 439.543C229.699 440.776 226.382 442.705 223.532 445.22C220.682 447.734 218.356 450.786 216.686 454.2C212.838 452.152 209.102 449.901 205.492 447.458C204.506 446.822 203.584 448.317 204.506 448.985C208.799 452.165 212.393 454.391 215.732 456.426C204.315 489.752 248.676 511.09 267.566 481.58C275.855 486.287 284.73 489.879 293.96 492.264C294.146 492.292 294.336 492.252 294.496 492.152C294.656 492.052 294.775 491.899 294.832 491.72C294.89 491.54 294.881 491.346 294.809 491.172C294.736 490.998 294.604 490.855 294.437 490.77ZM243.557 465.33C240.981 467.798 237.582 469.226 234.017 469.337V478.241C234.017 478.603 233.872 478.951 233.616 479.207C233.36 479.464 233.012 479.608 232.649 479.608C232.286 479.608 231.939 479.464 231.682 479.207C231.426 478.951 231.282 478.603 231.282 478.241C231.282 476.714 230.741 464.09 230.709 463.072C230.709 459.892 229.501 454.454 233.889 452.705C241.967 449.303 249.599 458.238 243.398 465.298L243.557 465.33ZM258.185 474.87C257.739 479.958 250.902 482.152 246.832 479.131C246.542 478.902 246.347 478.574 246.285 478.209C246.222 477.845 246.297 477.471 246.495 477.158C246.693 476.846 246.999 476.618 247.355 476.519C247.711 476.419 248.091 476.455 248.422 476.619C249.342 477.235 250.449 477.512 251.551 477.402C252.654 477.292 253.684 476.801 254.464 476.015C255.418 475.029 255.036 473.057 253.478 473.28C252.27 473.625 251.011 473.754 249.758 473.661C249.122 473.514 248.534 473.211 248.045 472.78C247.555 472.349 247.18 471.804 246.953 471.193C246.727 470.581 246.655 469.923 246.745 469.278C246.834 468.632 247.083 468.018 247.468 467.492C248.005 466.734 248.713 466.112 249.534 465.678C250.356 465.244 251.269 465.01 252.198 464.995C253.127 464.979 254.046 465.183 254.882 465.589C255.718 465.995 256.446 466.593 257.008 467.333C257.962 468.573 255.99 470.068 255.036 468.86C254.592 468.343 254.004 467.971 253.347 467.789C252.69 467.608 251.994 467.627 251.348 467.842C248.581 468.86 250.33 471.594 252.174 471.022C252.588 470.895 258.439 469.973 258.026 474.743L258.185 474.87ZM515.669 369.103C514.639 371.455 513.46 373.738 512.139 375.94C509.648 372.477 506.422 369.609 502.692 367.539C498.962 365.469 494.821 364.249 490.564 363.967C486.308 363.685 482.042 364.347 478.071 365.907C474.101 367.466 470.524 369.884 467.597 372.987C464.671 376.091 462.466 379.803 461.142 383.858C459.818 387.913 459.406 392.21 459.937 396.443C460.468 400.675 461.928 404.738 464.213 408.341C466.497 411.943 469.55 414.995 473.152 417.28C469.973 420.11 463.39 425.135 462.054 426.184L459.701 425.103C458.652 424.626 457.793 426.184 458.874 426.693C459.365 426.921 459.842 427.176 460.305 427.456C456.302 430.36 452.152 433.056 447.872 435.533C447.648 435.66 447.484 435.87 447.415 436.117C447.347 436.365 447.379 436.629 447.506 436.853C447.632 437.076 447.842 437.24 448.09 437.309C448.337 437.378 448.602 437.345 448.826 437.219C454.073 434.293 458.588 431.526 462.563 428.823C465.466 430.842 468.17 433.131 470.64 435.66C470.89 435.856 471.201 435.954 471.518 435.936C471.834 435.919 472.133 435.787 472.359 435.565C472.585 435.342 472.722 435.046 472.745 434.73C472.769 434.414 472.676 434.1 472.485 433.848C470.005 431.51 467.335 429.383 464.503 427.488C466.443 426.089 472.644 421.478 475.76 418.743C481.321 421.479 487.613 422.36 493.711 421.257C499.81 420.153 505.394 417.122 509.643 412.61C513.891 408.098 516.581 402.342 517.317 396.188C518.052 390.034 516.795 383.807 513.729 378.42C515.366 375.688 516.729 372.802 517.8 369.803C518.34 368.435 516.21 367.767 515.669 369.103ZM488.925 404.528C488.287 402.379 487.788 400.191 487.431 397.977L480.721 398.645C480.339 400.649 479.958 402.652 479.64 404.655C479.322 406.659 476.714 405.832 476.969 404.115C477.541 399.885 480.943 381.855 481.611 380.138C483.487 376.449 486.318 378.993 487.971 383.159C489.575 390.055 490.828 397.028 491.724 404.051C491.787 404.422 491.7 404.803 491.483 405.11C491.265 405.418 490.934 405.626 490.563 405.689C490.192 405.752 489.811 405.665 489.504 405.448C489.197 405.23 488.989 404.899 488.925 404.528ZM494.363 383.89C494.524 383.515 494.763 383.178 495.063 382.901C495.364 382.625 495.72 382.415 496.107 382.286C496.495 382.157 496.905 382.111 497.312 382.152C497.718 382.193 498.111 382.319 498.465 382.523C498.781 382.734 499.047 383.012 499.246 383.336C499.445 383.66 499.571 384.023 499.616 384.401C499.662 384.778 499.625 385.161 499.509 385.523C499.392 385.885 499.199 386.217 498.942 386.498C498.543 386.988 497.983 387.321 497.362 387.437C496.74 387.554 496.098 387.446 495.548 387.133C494.999 386.82 494.578 386.323 494.361 385.729C494.144 385.135 494.145 384.483 494.363 383.89ZM499.896 404.21C499.891 404.575 499.755 404.926 499.514 405.199C499.272 405.472 498.941 405.65 498.579 405.7C498.218 405.75 497.85 405.669 497.544 405.472C497.237 405.274 497.011 404.973 496.907 404.624C496.653 403.924 496.176 394.13 496.176 392.985C496.176 392.656 496.306 392.34 496.539 392.108C496.772 391.875 497.087 391.745 497.416 391.745C497.745 391.745 498.06 391.875 498.293 392.108C498.525 392.34 498.656 392.656 498.656 392.985C498.751 394.797 499.928 403.67 499.896 404.21Z" fill="#0C31F1"/>
<path d="M481.357 395.497L486.89 394.892C486.336 391.014 485.399 387.201 484.092 383.508C483.36 386.688 482.025 392.348 481.357 395.497ZM174.9 532.459C172.229 534.049 174.423 538.374 178.08 536.752C178.08 534.653 177.89 533.095 177.826 532.364C177.366 532.144 176.861 532.038 176.352 532.055C175.842 532.072 175.345 532.21 174.9 532.459Z" fill="#0A1A6B"/>
<path d="M205.619 528.421C200.355 529.244 195.045 529.733 189.719 529.883C188.288 504.857 152.481 504.825 151.019 529.883C145.494 529.35 140.057 528.132 134.832 526.258C134.734 526.208 134.627 526.178 134.517 526.169C134.407 526.16 134.297 526.173 134.192 526.207C134.087 526.241 133.99 526.296 133.906 526.367C133.822 526.439 133.754 526.526 133.703 526.624C133.653 526.722 133.623 526.829 133.614 526.939C133.606 527.049 133.619 527.159 133.652 527.264C133.686 527.369 133.741 527.466 133.812 527.55C133.884 527.634 133.971 527.703 134.069 527.753C139.368 530.558 145.174 532.277 151.146 532.809C151.748 537.478 154.029 541.767 157.564 544.876C161.099 547.984 165.646 549.699 170.353 549.699C175.06 549.699 179.606 547.984 183.141 544.876C186.676 541.767 188.958 537.478 189.56 532.809C195.097 532.245 200.597 531.363 206.033 530.17C206.219 530.077 206.37 529.924 206.458 529.736C206.547 529.547 206.57 529.334 206.522 529.131C206.474 528.928 206.358 528.747 206.194 528.618C206.03 528.489 205.828 528.42 205.619 528.421ZM167.459 538.565C167.416 538.78 167.328 538.983 167.2 539.162C167.073 539.341 166.91 539.49 166.721 539.601C166.532 539.712 166.321 539.782 166.103 539.806C165.885 539.831 165.665 539.808 165.456 539.741C164.502 539.455 164.661 538.915 163.134 536.752C162.657 537.547 162.18 538.374 161.735 539.201C161.561 539.486 161.284 539.692 160.962 539.779C160.639 539.866 160.296 539.825 160.002 539.666C159.709 539.507 159.488 539.242 159.384 538.924C159.28 538.607 159.302 538.262 159.446 537.961C160.05 536.816 160.654 535.639 161.322 534.494C160.537 533.677 159.662 532.952 158.714 532.332C158.403 532.114 158.187 531.785 158.11 531.413C158.033 531.04 158.1 530.653 158.299 530.329C158.497 530.004 158.812 529.768 159.179 529.668C159.545 529.567 159.936 529.61 160.272 529.788C164.247 532.237 161.799 532.523 164.82 528.77C166.06 527.244 168.413 529.12 167.396 530.679C166.696 531.76 165.806 532.873 165.042 533.859C166.601 535.862 167.618 537.42 167.427 538.565H167.459ZM181.006 538.946C180.329 539.557 179.529 540.015 178.66 540.289C177.79 540.564 176.872 540.648 175.967 540.536C175.063 540.425 174.192 540.12 173.416 539.643C172.639 539.165 171.974 538.527 171.466 537.77C170.818 536.814 170.475 535.685 170.481 534.531C170.486 533.377 170.841 532.251 171.498 531.302C172.155 530.353 173.083 529.624 174.161 529.212C175.24 528.8 176.417 528.724 177.54 528.993C177.265 525.555 177.169 522.106 177.254 518.658C177.258 518.29 177.399 517.937 177.648 517.666C177.897 517.395 178.238 517.226 178.604 517.19C178.97 517.155 179.337 517.256 179.633 517.474C179.93 517.692 180.136 518.012 180.211 518.372C180.879 522.538 181.388 534.749 181.451 536.148C181.515 536.88 181.833 538.088 180.974 538.946H181.006ZM121.572 350.945C122.144 350.945 122.303 350.945 122.335 350.754C122.335 350.213 121.254 343.058 121.127 342.2C112.095 343.44 113.24 351.772 121.572 350.945Z" fill="#0A1A6B"/>
<path d="M144.054 320.799C140.284 321.315 136.547 322.048 132.86 322.993C129.896 320.114 126.282 317.991 122.324 316.805C118.366 315.618 114.18 315.402 110.121 316.176C106.061 316.949 102.248 318.689 99.0038 321.249C95.7594 323.808 93.1792 327.111 91.4815 330.878C89.7839 334.646 89.0187 338.767 89.2508 342.892C89.4829 347.018 90.7055 351.027 92.815 354.58C94.9245 358.134 97.8588 361.127 101.37 363.306C104.881 365.485 108.865 366.786 112.985 367.099C116.573 377.201 122.825 386.145 131.08 392.985C131.155 393.058 131.244 393.115 131.341 393.154C131.438 393.193 131.543 393.212 131.647 393.21C131.752 393.209 131.856 393.187 131.952 393.145C132.048 393.104 132.135 393.044 132.208 392.969C132.282 392.894 132.339 392.805 132.378 392.707C132.417 392.61 132.436 392.506 132.434 392.401C132.433 392.296 132.411 392.193 132.369 392.096C132.328 392 132.268 391.913 132.193 391.84C125.308 384.635 119.734 376.284 115.72 367.163C120.513 366.982 125.161 365.47 129.143 362.797C133.125 360.123 136.283 356.393 138.264 352.025C140.245 347.657 140.97 342.823 140.358 338.066C139.747 333.309 137.822 328.816 134.8 325.092C138.171 324.201 141.16 323.406 144.34 322.802C145.867 322.548 145.326 320.544 144.054 320.799ZM104.368 352.98V329.321C104.417 329.006 104.577 328.719 104.819 328.512C105.061 328.305 105.369 328.191 105.687 328.191C106.006 328.191 106.314 328.305 106.556 328.512C106.798 328.719 106.958 329.006 107.007 329.321C107.007 334.027 107.548 349.8 107.643 352.98C107.533 353.329 107.315 353.633 107.021 353.849C106.726 354.065 106.37 354.181 106.005 354.181C105.64 354.181 105.284 354.065 104.99 353.849C104.695 353.633 104.477 353.329 104.368 352.98ZM123.829 353.298C117.469 356.701 108.979 350.627 112.985 343.536C113.864 342.273 115.041 341.247 116.411 340.548C117.781 339.849 119.302 339.499 120.84 339.529C120.309 336.064 119.99 332.57 119.886 329.067C119.903 328.722 120.041 328.395 120.276 328.142C120.511 327.889 120.827 327.728 121.17 327.686C121.512 327.644 121.858 327.724 122.147 327.913C122.436 328.102 122.649 328.386 122.748 328.717C123.289 331.006 124.815 346.239 124.974 348.242C125.038 349.8 125.737 352.122 123.829 353.139V353.298Z" fill="#0A1A6B"/>
<path d="M481.408 395.59L487.874 395.002C487.32 391.124 485.067 386.351 483.76 382.658C483.028 385.838 482.076 392.441 481.408 395.59ZM175.172 532.197C172.501 533.787 174.695 538.112 178.352 536.49C178.352 534.391 178.161 532.833 178.097 532.102C177.638 531.882 177.132 531.776 176.623 531.793C176.114 531.809 175.616 531.948 175.172 532.197Z" fill="#0C31F1"/>
<path d="M470.693 435.761C468.912 434.616 460.574 427.83 458.793 426.685C458.582 426.555 458.432 426.346 458.375 426.104C458.318 425.862 458.19 425.454 458.484 424.98C458.849 424.392 459.537 424.564 459.779 424.508C462.011 425.567 468.555 430.014 470.24 431.445C472.049 432.63 472.866 434.001 472.866 434.688C472.866 435.375 472.785 435.312 472.591 435.56C472.398 435.808 471.903 435.853 471.594 435.913C471.285 435.973 470.965 435.919 470.693 435.761Z" fill="#0A1A6B"/>
</g>
<defs>
<filter id="filter0_d_15_1021" x="-4" y="0" width="644" height="644" filterUnits="userSpaceOnUse" color-interpolation-filters="sRGB">
<feFlood flood-opacity="0" result="BackgroundImageFix"/>
<feColorMatrix in="SourceAlpha" type="matrix" values="0 0 0 0 0 0 0 0 0 0 0 0 0 0 0 0 0 0 127 0" result="hardAlpha"/>
<feOffset dy="4"/>
<feGaussianBlur stdDeviation="2"/>
<feComposite in2="hardAlpha" operator="out"/>
<feColorMatrix type="matrix" values="0 0 0 0 0 0 0 0 0 0 0 0 0 0 0 0 0 0 0.25 0"/>
<feBlend mode="normal" in2="BackgroundImageFix" result="effect1_dropShadow_15_1021"/>
<feBlend mode="normal" in="SourceGraphic" in2="effect1_dropShadow_15_1021" result="shape"/>
</filter>
</defs>
</svg>
